<?xml version="1.0" standalone="no"?><!DOCTYPE svg PUBLIC "-//W3C//DTD SVG 1.1//EN" "http://www.w3.org/Graphics/SVG/1.1/DTD/svg11.dtd"><svg class="icon" width="200px" height="200.00px" viewBox="0 0 1024 1024" version="1.1" xmlns="http://www.w3.org/2000/svg"><path d="M246.3 300.4c113.2-15.3 407.8-16.3 530.4 2l-69.2 615.4c-38.8 23.4-211.7 63.1-387.8 0l-73.4-617.4z m195.5 253.2c18.1 27.7 39.7 58.5 65.3 92.1 27.8 36.4 68.5 67.2 111.4 104.4 34.7-34.1 19.7-101.9-34.2-152.3-45.2-42.4-103.4-59.1-142.5-44.2z m-25-5.4c-3.9 2.2-7.6 4.6-11 7.6-36.4 32.3-21.4 98 33.6 146.8 44.9 39.8 102.5 56 142 43-34.2-31.2-70.2-67.7-102.3-107.1-23.6-28.9-44.4-60.1-62.3-90.3zM809.9 301.6c-12.2-8 1-16-16.2-23.4 0.5-38.8-2-38.3-5.6-39.4-19.8-1.1-33-3.4-33-3.4s0.9-21.6-10-93.7c-1.3-8.4-7.6-15.2-15.9-17.1-200.4-45.1-209.5-45.2-433.8-6.3-8.8 1.5-15.6 8.5-16.9 17.3-10.8 71.7-10.4 94.6-10.4 94.6s-13.2 2.3-33 3.4c-3.6 1.1-6.1 0.6-5.6 39.4-17.3 7.4-4.1 15.4-16.2 23.4 95.8 29.2 543.8 36.6 596.6 5.2z" /></svg>